<svg width="102" height="102" viewBox="0 0 102 102" fill="none" xmlns="http://www.w3.org/2000/svg">
<path d="M33.3999 17.4C33.3999 28.6 17.3999 47.8 17.3999 47.8C17.3999 47.8 1.3999 28.6 1.3999 17.4C1.3999 8.60005 8.5999 1.40005 17.3999 1.40005C26.1999 1.40005 33.3999 8.60005 33.3999 17.4Z" stroke="#AF38D9" stroke-width="2" stroke-miterlimit="10" stroke-linecap="round" stroke-linejoin="round"/>
<path d="M17.4 23.8C20.9346 23.8 23.8 20.9347 23.8 17.4C23.8 13.8654 20.9346 11 17.4 11C13.8654 11 11 13.8654 11 17.4C11 20.9347 13.8654 23.8 17.4 23.8Z" stroke="#AF38D9" stroke-width="2" stroke-miterlimit="10" stroke-linecap="round" stroke-linejoin="round"/>
<path d="M50.9999 100.6H17.3999C8.5999 100.6 1.3999 93.4001 1.3999 84.6001C1.3999 75.8001 8.5999 68.6001 17.3999 68.6001H38.9999C44.7599 68.6001 49.3999 63.9601 49.3999 58.2C49.3999 52.44 44.7599 47.8 38.9999 47.8H28.5999" stroke="#AF38D9" stroke-width="2" stroke-miterlimit="10" stroke-linecap="round" stroke-linejoin="round"/>
<path d="M68.6001 35H100.6" stroke="#AF38D9" stroke-width="2" stroke-miterlimit="10" stroke-linecap="round" stroke-linejoin="round"/>
<path d="M100.6 35C100.6 48.28 89.8801 59 76.6001 59C63.3201 59 52.6001 48.28 52.6001 35C52.6001 23.96 60.6001 1.40005 60.6001 1.40005H92.6001C92.6001 1.40005 100.6 21.72 100.6 35Z" stroke="#AF38D9" stroke-width="2" stroke-miterlimit="10" stroke-linecap="round" stroke-linejoin="round"/>
<path d="M51 100.6H54.2C66.52 100.6 76.6 90.5201 76.6 78.2V60.6" stroke="#AF38D9" stroke-width="2" stroke-miterlimit="10" stroke-linecap="round" stroke-linejoin="round"/>
<path d="M81.8801 92.6001C86.0401 97.5601 92.1201 100.6 99.0001 100.6H76.6001" stroke="#AF38D9" stroke-width="2" stroke-miterlimit="10" stroke-linecap="round" stroke-linejoin="round"/>
</svg>
