<svg width="102" height="102" viewBox="0 0 102 102" fill="none" xmlns="http://www.w3.org/2000/svg">
<path d="M67 41.4001C67 35.0001 63.32 29.56 57.4 27V3.00005C57.4 2.04005 56.76 1.40005 55.8 1.40005H46.2C45.24 1.40005 44.6 2.04005 44.6 3.00005V27C38.68 29.56 35 35.0001 35 41.4001" stroke="#AF38D9" stroke-width="2" stroke-miterlimit="10" stroke-linecap="square" stroke-linejoin="round"/>
<path d="M57.4001 22.2001H44.6001" stroke="#AF38D9" stroke-width="2" stroke-miterlimit="10" stroke-linecap="square" stroke-linejoin="round"/>
<path d="M31.7997 28.7601C30.8397 28.1201 29.7197 27.48 28.5997 27V3.00005C28.5997 2.04005 27.9597 1.40005 26.9997 1.40005H17.3997C16.4397 1.40005 15.7997 2.04005 15.7997 3.00005V27C9.87971 29.56 6.19971 35.0001 6.19971 41.4001" stroke="#AF38D9" stroke-width="2" stroke-miterlimit="10" stroke-linecap="square" stroke-linejoin="round"/>
<path d="M28.5998 22.2H15.7998" stroke="#AF38D9" stroke-width="2" stroke-miterlimit="10" stroke-linecap="square" stroke-linejoin="round"/>
<path d="M70.1997 28.7601C71.1597 28.1201 72.2797 27.48 73.3997 27V3.00005C73.3997 2.04005 74.0397 1.40005 74.9997 1.40005H84.5997C85.5597 1.40005 86.1997 2.04005 86.1997 3.00005V27C92.1197 29.56 95.7997 35.0001 95.7997 41.4001" stroke="#AF38D9" stroke-width="2" stroke-miterlimit="10" stroke-linecap="square" stroke-linejoin="round"/>
<path d="M73.3999 22.2001H86.1999" stroke="#AF38D9" stroke-width="2" stroke-miterlimit="10" stroke-linecap="square" stroke-linejoin="round"/>
<path d="M100.6 79.8V97.4001C100.6 99.1601 99.1599 100.6 97.3999 100.6H4.5999C2.8399 100.6 1.3999 99.1601 1.3999 97.4001V79.8" stroke="#AF38D9" stroke-width="2" stroke-miterlimit="10" stroke-linecap="square" stroke-linejoin="round"/>
<path d="M1.3999 70.2001V51C1.3999 49.24 2.8399 47.8 4.5999 47.8H97.3999C99.1599 47.8 100.6 49.24 100.6 51V70.2001" stroke="#AF38D9" stroke-width="2" stroke-miterlimit="10" stroke-linecap="square" stroke-linejoin="round"/>
<path d="M6.19971 75H95.7997" stroke="#AF38D9" stroke-width="2" stroke-miterlimit="10" stroke-linecap="square" stroke-linejoin="round"/>
<path d="M14.2 63.8C15.9673 63.8 17.4 62.3674 17.4 60.6C17.4 58.8327 15.9673 57.4 14.2 57.4C12.4327 57.4 11 58.8327 11 60.6C11 62.3674 12.4327 63.8 14.2 63.8Z" fill="#AF38D9"/>
<path d="M14.2 91.0001C15.9673 91.0001 17.4 89.5674 17.4 87.8001C17.4 86.0327 15.9673 84.6001 14.2 84.6001C12.4327 84.6001 11 86.0327 11 87.8001C11 89.5674 12.4327 91.0001 14.2 91.0001Z" fill="#AF38D9"/>
<path d="M87.8001 63.8C89.5674 63.8 91.0001 62.3674 91.0001 60.6C91.0001 58.8327 89.5674 57.4 87.8001 57.4C86.0328 57.4 84.6001 58.8327 84.6001 60.6C84.6001 62.3674 86.0328 63.8 87.8001 63.8Z" fill="#AF38D9"/>
<path d="M87.8001 91.0001C89.5674 91.0001 91.0001 89.5674 91.0001 87.8001C91.0001 86.0327 89.5674 84.6001 87.8001 84.6001C86.0328 84.6001 84.6001 86.0327 84.6001 87.8001C84.6001 89.5674 86.0328 91.0001 87.8001 91.0001Z" fill="#AF38D9"/>
</svg>
