<svg width="102" height="102" viewBox="0 0 102 102" fill="none" xmlns="http://www.w3.org/2000/svg">
<path d="M86.52 85.88L94.2 100.6" stroke="#AF38D9" stroke-width="2" stroke-miterlimit="10" stroke-linecap="round" stroke-linejoin="round"/>
<path d="M97.5598 50.36C104.44 63.16 99.4798 79.1601 86.5198 86.0401C73.5598 92.9201 57.7198 87.8 50.8398 75C45.8798 65.56 42.3598 44.44 41.5598 39.32C41.3998 38.68 41.7198 38.04 42.3598 37.72L71.4798 22.36C72.1198 22.04 72.7598 22.2 73.2398 22.52C76.9198 25.72 91.6398 39 97.5598 50.36Z" stroke="#AF38D9" stroke-width="2" stroke-miterlimit="10" stroke-linecap="round" stroke-linejoin="round"/>
<path d="M88.2799 67.3201C88.2799 67.3201 68.9199 70.8401 58.3599 63.8" stroke="#AF38D9" stroke-width="2" stroke-miterlimit="10" stroke-linecap="round" stroke-linejoin="round"/>
<path d="M42.9998 53.7201C41.8798 54.0401 40.7598 54.2001 39.4798 54.2001H31.7998" stroke="#AF38D9" stroke-width="2" stroke-miterlimit="10" stroke-linecap="round" stroke-linejoin="round"/>
<path d="M54.1997 39.8C54.3597 41.24 54.0397 42.84 53.5597 44.44C52.9197 46.36 51.9597 47.9601 50.6797 49.4001" stroke="#AF38D9" stroke-width="2" stroke-miterlimit="10" stroke-linecap="round" stroke-linejoin="round"/>
<path d="M30.1997 1.40005C33.0797 11.64 40.5997 19.96 46.5197 26.84C48.1197 28.76 49.7197 30.52 50.9997 32.28" stroke="#AF38D9" stroke-width="2" stroke-miterlimit="10" stroke-linecap="round" stroke-linejoin="round"/>
<path d="M12.5998 31.8C5.71977 31.8 0.279765 38.04 1.55977 45.08C2.51977 50.52 7.79977 54.52 13.2398 54.2C18.6798 53.88 21.5598 50.52 22.6798 48.76C23.1598 47.96 23.7998 47.32 24.4398 46.68C26.0398 45.24 28.1198 44.44 30.3598 44.44H31.7998C33.5598 44.44 34.9998 45.88 34.9998 47.64" stroke="#AF38D9" stroke-width="2" stroke-miterlimit="10" stroke-linecap="round" stroke-linejoin="round"/>
</svg>
