<svg width="24" height="24" viewBox="0 0 24 24" fill="none" xmlns="http://www.w3.org/2000/svg">
<g opacity="0.3">
<path d="M6.99951 22H3.99951C3.46908 22 2.96037 21.7893 2.5853 21.4142C2.21023 21.0391 1.99951 20.5304 1.99951 20V13C1.99951 12.4696 2.21023 11.9609 2.5853 11.5858C2.96037 11.2107 3.46908 11 3.99951 11H6.99951M13.9995 9V5C13.9995 4.20435 13.6834 3.44129 13.1208 2.87868C12.5582 2.31607 11.7952 2 10.9995 2L6.99951 11V22H18.2795C18.7618 22.0055 19.2299 21.8364 19.5974 21.524C19.9649 21.2116 20.2072 20.7769 20.2795 20.3L21.6595 11.3C21.703 11.0134 21.6837 10.7207 21.6029 10.4423C21.522 10.1638 21.3816 9.90629 21.1914 9.68751C21.0011 9.46873 20.7656 9.29393 20.5011 9.17522C20.2366 9.0565 19.9494 8.99672 19.6595 9H13.9995Z" stroke="black" stroke-width="2" stroke-linecap="round" stroke-linejoin="round"/>
</g>
</svg>
