<svg width="24" height="24" viewBox="0 0 24 24" fill="none" xmlns="http://www.w3.org/2000/svg">
<g opacity="0.3">
<path fill-rule="evenodd" clip-rule="evenodd" d="M10.0857 1.59386C10.2462 1.23273 10.6043 1 10.9995 1C12.0604 1 13.0778 1.42143 13.8279 2.17157C14.5781 2.92172 14.9995 3.93913 14.9995 5V8H19.6544C20.0872 7.996 20.5157 8.08567 20.9105 8.26289C21.3073 8.44096 21.6606 8.70317 21.946 9.03134C22.2313 9.35951 22.4419 9.7458 22.5632 10.1634C22.6845 10.5811 22.7134 11.0201 22.6482 11.4501L21.2682 20.4499C21.2682 20.4502 21.2682 20.4497 21.2682 20.4499C21.1596 21.165 20.7962 21.8175 20.2451 22.2859C19.6953 22.7532 18.9957 23.0067 18.2743 23H3.99951C3.20386 23 2.4408 22.6839 1.87819 22.1213C1.31558 21.5587 0.999512 20.7957 0.999512 20V13C0.999512 12.2044 1.31558 11.4413 1.87819 10.8787C2.4408 10.3161 3.20386 10 3.99951 10H6.34964L10.0857 1.59386ZM7.99951 11.2122L11.6073 3.0946C11.9087 3.19075 12.1859 3.35794 12.4137 3.58579C12.7888 3.96086 12.9995 4.46957 12.9995 5V9C12.9995 9.55228 13.4472 10 13.9995 10H19.6595L19.6708 9.99994C19.8158 9.99829 19.9594 10.0282 20.0916 10.0875C20.2239 10.1469 20.3416 10.2343 20.4368 10.3437C20.5319 10.4531 20.6021 10.5818 20.6425 10.7211C20.6829 10.8601 20.6926 11.0063 20.6709 11.1495C20.6709 11.1494 20.6709 11.1497 20.6709 11.1495L19.2908 20.1501C19.2547 20.3885 19.1335 20.6059 18.9498 20.7621C18.766 20.9183 18.532 21.0028 18.2908 21.0001L7.99951 21V11.2122ZM5.99951 21V12H3.99951C3.7343 12 3.47994 12.1054 3.2924 12.2929C3.10487 12.4804 2.99951 12.7348 2.99951 13V20C2.99951 20.2652 3.10487 20.5196 3.2924 20.7071C3.47994 20.8946 3.7343 21 3.99951 21H5.99951Z" fill="black"/>
</g>
</svg>
