<svg width="33" height="32" viewBox="0 0 33 32" fill="none" xmlns="http://www.w3.org/2000/svg">
<path d="M12 13.3333C12 12.781 11.5523 12.3333 11 12.3333C10.4477 12.3333 10 12.781 10 13.3333C10 15.013 10.6673 16.6239 11.855 17.8116C13.0427 18.9993 14.6536 19.6666 16.3333 19.6666C18.013 19.6666 19.6239 18.9993 20.8117 17.8116C21.9994 16.6239 22.6667 15.013 22.6667 13.3333C22.6667 12.781 22.219 12.3333 21.6667 12.3333C21.1144 12.3333 20.6667 12.781 20.6667 13.3333C20.6667 14.4825 20.2101 15.5847 19.3975 16.3974C18.5848 17.21 17.4826 17.6666 16.3333 17.6666C15.1841 17.6666 14.0819 17.21 13.2692 16.3974C12.4565 15.5847 12 14.4825 12 13.3333Z"/>
<path fill-rule="evenodd" clip-rule="evenodd" d="M7.53325 2.06675C7.72211 1.81494 8.01849 1.66675 8.33325 1.66675H24.3333C24.648 1.66675 24.9444 1.81494 25.1333 2.06675L29.1249 7.3889C29.2555 7.5579 29.3333 7.76987 29.3333 8V26.6667C29.3333 27.6392 28.9469 28.5718 28.2593 29.2595C27.5717 29.9471 26.639 30.3334 25.6666 30.3334H6.99992C6.02746 30.3334 5.09483 29.9471 4.40719 29.2595C3.71956 28.5718 3.33325 27.6392 3.33325 26.6667V8.00008C3.33325 7.76994 3.411 7.55787 3.54166 7.38887L7.53325 2.06675ZM23.8333 3.66675L26.3332 7H6.33331L8.83325 3.66675H23.8333ZM5.33325 26.6667V9H27.3333V26.6667C27.3333 27.1088 27.1577 27.5327 26.8451 27.8453C26.5325 28.1578 26.1086 28.3334 25.6666 28.3334H6.99992C6.55789 28.3334 6.13397 28.1578 5.82141 27.8453C5.50885 27.5327 5.33325 27.1088 5.33325 26.6667Z"/>
</svg>
