<svg width="24" height="24" viewBox="0 0 24 24" fill="none" xmlns="http://www.w3.org/2000/svg">
<g>
<path d="M20.266 17.7375H18.3038C17.5646 17.7375 17.3361 17.1327 16.0324 15.8021C14.8497 14.6866 14.339 14.5253 14.0567 14.5253C13.667 14.5253 13.546 14.6328 13.546 15.1973V16.958C13.546 17.4284 13.3982 17.724 12.1483 17.724C10.0785 17.724 7.78027 16.4607 6.16747 14.1356C3.73483 10.7218 3.07627 8.14131 3.07627 7.63059C3.07627 7.34835 3.17034 7.07955 3.73483 7.07955H5.71051C6.20779 7.07955 6.39595 7.29459 6.58411 7.83219C7.55179 10.6546 9.16459 13.0738 9.82315 13.0738C10.0785 13.0738 10.186 12.9528 10.186 12.3346V9.44499C10.1188 8.12788 9.40651 8.00692 9.40651 7.53652C9.40651 7.29459 9.59467 7.07955 9.90378 7.07955H12.9815C13.3982 7.07955 13.546 7.29459 13.546 7.80532V11.6895C13.546 12.1061 13.7207 12.254 13.8551 12.254C14.0971 12.254 14.3121 12.1061 14.7556 11.6492C16.1668 10.0767 17.1748 7.64403 17.1748 7.64403C17.3092 7.36179 17.5243 7.09299 18.0484 7.09299H19.9703C20.5617 7.09299 20.6961 7.40211 20.5617 7.81876C20.3198 8.96115 17.9275 12.3346 17.9543 12.3346C17.7393 12.6706 17.6587 12.8184 17.9543 13.2082C18.1559 13.4904 18.8414 14.0818 19.2983 14.606C20.1316 15.5602 20.7767 16.3532 20.9515 16.9042C21.0993 17.4552 20.8305 17.7375 20.266 17.7375Z" />
</g>
</svg>
