<svg width="36" height="36" viewBox="0 0 36 36" fill="none" xmlns="http://www.w3.org/2000/svg">
<g clip-path="url(#clip0_2498_20785)">
<path d="M35.8221 10.6432C35.7385 8.74553 35.4316 7.44092 34.992 6.31046C34.5385 5.1105 33.8408 4.03618 32.9268 3.14309C32.0337 2.23611 30.9523 1.53134 29.7662 1.08494C28.6292 0.645342 27.3314 0.338472 25.4338 0.254804C23.522 0.164051 22.9151 0.143066 18.0662 0.143066C13.2173 0.143066 12.6104 0.164051 10.7057 0.247719C8.80802 0.331386 7.50341 0.638529 6.37322 1.07785C5.173 1.53134 4.09868 2.22902 3.20559 3.14309C2.29861 4.03618 1.59411 5.11759 1.14743 6.30364C0.707842 7.44092 0.400971 8.73844 0.317304 10.6361C0.226551 12.5479 0.205566 13.1548 0.205566 18.0037C0.205566 22.8526 0.226551 23.4595 0.310218 25.3642C0.393886 27.2619 0.701028 28.5665 1.14062 29.6969C1.59411 30.8969 2.29861 31.9712 3.20559 32.8643C4.09868 33.7713 5.18008 34.4761 6.36614 34.9225C7.50341 35.3621 8.80093 35.6689 10.6988 35.7526C12.6033 35.8365 13.2105 35.8572 18.0594 35.8572C22.9082 35.8572 23.5152 35.8365 25.4199 35.7526C27.3175 35.6689 28.6221 35.3621 29.7523 34.9225C32.1525 33.9945 34.0501 32.0969 34.9781 29.6969C35.4174 28.5597 35.7246 27.2619 35.8082 25.3642C35.8919 23.4595 35.9129 22.8526 35.9129 18.0037C35.9129 13.1548 35.9058 12.5479 35.8221 10.6432ZM32.606 25.2247C32.5292 26.9689 32.2362 27.9108 31.992 28.5387C31.3919 30.0946 30.157 31.3294 28.6012 31.9295C27.9732 32.1737 27.0246 32.4667 25.2872 32.5433C23.4034 32.6272 22.8385 32.6479 18.0733 32.6479C13.3081 32.6479 12.736 32.6272 10.8591 32.5433C9.11489 32.4667 8.17302 32.1737 7.54511 31.9295C6.77085 31.6434 6.06608 31.1899 5.49404 30.5968C4.90101 30.0177 4.44752 29.32 4.16136 28.5458C3.91717 27.9179 3.6242 26.9689 3.54762 25.2318C3.46368 23.348 3.44297 22.7828 3.44297 18.0176C3.44297 13.2524 3.46368 12.6803 3.54762 10.8037C3.6242 9.05948 3.91717 8.11761 4.16136 7.4897C4.44752 6.71517 4.90101 6.01067 5.50112 5.43836C6.07998 4.84533 6.77766 4.39183 7.55219 4.10595C8.18011 3.86176 9.12906 3.56879 10.8662 3.49194C12.7499 3.40827 13.3151 3.38728 18.0801 3.38728C22.8524 3.38728 23.4173 3.40827 25.2943 3.49194C27.0385 3.56879 27.9803 3.86176 28.6082 4.10595C29.3825 4.39183 30.0873 4.84533 30.6593 5.43836C31.2523 6.01749 31.7058 6.71517 31.992 7.4897C32.2362 8.11761 32.5292 9.0663 32.606 10.8037C32.6897 12.6874 32.7107 13.2524 32.7107 18.0176C32.7107 22.7828 32.6897 23.341 32.606 25.2247Z"/>
<path d="M18.0666 8.8291C13.0016 8.8291 8.89209 12.9383 8.89209 18.0036C8.89209 23.0689 13.0016 27.1781 18.0666 27.1781C23.1319 27.1781 27.2411 23.0689 27.2411 18.0036C27.2411 12.9383 23.1319 8.8291 18.0666 8.8291ZM18.0666 23.9549C14.7807 23.9549 12.1153 21.2898 12.1153 18.0036C12.1153 14.7174 14.7807 12.0523 18.0666 12.0523C21.3528 12.0523 24.0179 14.7174 24.0179 18.0036C24.0179 21.2898 21.3528 23.9549 18.0666 23.9549V23.9549Z"/>
<path d="M29.7459 8.46654C29.7459 9.64933 28.7868 10.6084 27.6037 10.6084C26.421 10.6084 25.4619 9.64933 25.4619 8.46654C25.4619 7.28347 26.421 6.32471 27.6037 6.32471C28.7868 6.32471 29.7459 7.28347 29.7459 8.46654V8.46654Z"/>
</g>
<defs>
<clipPath id="clip0_2498_20785">
<rect width="35.7143" height="35.7143" transform="translate(0.143066 0.143066)"/>
</clipPath>
</defs>
</svg>
