<svg width="98" height="102" viewBox="0 0 98 102" fill="none" xmlns="http://www.w3.org/2000/svg">
<path d="M97 30.2V37.4C97 43.96 91.56 49.4 85 49.4C78.44 49.4 73 43.96 73 37.4C73 43.96 67.56 49.4 61 49.4C54.44 49.4 49 43.96 49 37.4C49 43.96 43.56 49.4 37 49.4C30.44 49.4 25 43.96 25 37.4C25 43.96 19.56 49.4 13 49.4C6.44 49.4 1 43.96 1 37.4V30.2" stroke="#AF38D9" stroke-width="2" stroke-miterlimit="10" stroke-linecap="round" stroke-linejoin="round"/>
<path d="M97 30.2H1L13.8 15.8H84.2L97 30.2Z" stroke="#AF38D9" stroke-width="2" stroke-miterlimit="10" stroke-linecap="round" stroke-linejoin="round"/>
<path d="M49 15.8V23.8" stroke="#AF38D9" stroke-width="2" stroke-miterlimit="10" stroke-linecap="round" stroke-linejoin="round"/>
<path d="M26.6001 23.8L33.0001 15.8" stroke="#AF38D9" stroke-width="2" stroke-miterlimit="10" stroke-linecap="round" stroke-linejoin="round"/>
<path d="M71.4 23.8L65 15.8" stroke="#AF38D9" stroke-width="2" stroke-miterlimit="10" stroke-linecap="round" stroke-linejoin="round"/>
<path d="M84.1998 49.4V78.2C84.1998 81.72 81.3198 84.6 77.7998 84.6" stroke="#AF38D9" stroke-width="2" stroke-miterlimit="10" stroke-linecap="square" stroke-linejoin="round"/>
<path d="M13.7998 15.8V7.79999C13.7998 4.27999 16.6798 1.39999 20.1998 1.39999H77.7998C81.3198 1.39999 84.1998 4.27999 84.1998 7.79999V15.8" stroke="#AF38D9" stroke-width="2" stroke-miterlimit="10" stroke-linecap="square" stroke-linejoin="round"/>
<path d="M21.7998 84.6H20.1998C16.6798 84.6 13.7998 81.72 13.7998 78.2V51" stroke="#AF38D9" stroke-width="2" stroke-miterlimit="10" stroke-linecap="square" stroke-linejoin="round"/>
<path d="M13.7998 15.8H84.1998" stroke="#AF38D9" stroke-width="2" stroke-miterlimit="10" stroke-linecap="round" stroke-linejoin="round"/>
<path d="M22.5997 11C23.9252 11 24.9997 9.92546 24.9997 8.59998C24.9997 7.2745 23.9252 6.19998 22.5997 6.19998C21.2742 6.19998 20.1997 7.2745 20.1997 8.59998C20.1997 9.92546 21.2742 11 22.5997 11Z" fill="#AF38D9"/>
<path d="M30.5997 11C31.9252 11 32.9997 9.92546 32.9997 8.59998C32.9997 7.2745 31.9252 6.19998 30.5997 6.19998C29.2742 6.19998 28.1997 7.2745 28.1997 8.59998C28.1997 9.92546 29.2742 11 30.5997 11Z" fill="#AF38D9"/>
<path d="M38.5997 11C39.9252 11 40.9997 9.92546 40.9997 8.59998C40.9997 7.2745 39.9252 6.19998 38.5997 6.19998C37.2742 6.19998 36.1997 7.2745 36.1997 8.59998C36.1997 9.92546 37.2742 11 38.5997 11Z" fill="#AF38D9"/>
<path d="M48.9998 94.1999C59.6037 94.1999 68.1998 85.6038 68.1998 74.9999C68.1998 64.396 59.6037 55.7999 48.9998 55.7999C38.3959 55.7999 29.7998 64.396 29.7998 74.9999C29.7998 85.6038 38.3959 94.1999 48.9998 94.1999Z" stroke="#AF38D9" stroke-width="2" stroke-miterlimit="10" stroke-linecap="round" stroke-linejoin="round"/>
<path d="M66.76 83.7999L71.88 88.9199C74.6 91.6399 74.6 95.9599 71.88 98.6799C69.16 101.4 64.84 101.4 62.12 98.6799L57 93.5599" stroke="#AF38D9" stroke-width="2" stroke-miterlimit="10" stroke-linecap="square" stroke-linejoin="round"/>
</svg>
