<svg width="16" height="16" viewBox="0 0 16 16" fill="none" xmlns="http://www.w3.org/2000/svg">
<path fill-rule="evenodd" clip-rule="evenodd" d="M0.42627 1.57912C0.590128 1.22596 0.944062 1 1.33339 1H14.6667C15.056 1 15.41 1.22596 15.5738 1.57912C15.7377 1.93229 15.6817 2.34845 15.4303 2.64573L10.3334 8.67281V14C10.3334 14.3466 10.1539 14.6684 9.85912 14.8507C9.5643 15.0329 9.19616 15.0494 8.88617 14.8944L6.21951 13.5611C5.88072 13.3917 5.66672 13.0454 5.66672 12.6667V8.67281L0.569817 2.64573C0.31842 2.34845 0.262411 1.93229 0.42627 1.57912ZM3.48869 3L7.43029 7.66094C7.58295 7.84147 7.66672 8.07024 7.66672 8.30667V12.0486L8.33339 12.382V8.30667C8.33339 8.07024 8.41715 7.84147 8.56982 7.66094L12.5114 3H3.48869Z"/>
</svg>
