<svg width="32" height="32" viewBox="0 0 32 32" fill="none" xmlns="http://www.w3.org/2000/svg">
<g>
<path fill-rule="evenodd" clip-rule="evenodd" d="M6.18849 20.855C7.37622 19.6673 8.98712 19 10.6668 19H21.3335C23.0132 19 24.6241 19.6673 25.8118 20.855C26.9996 22.0427 27.6668 23.6536 27.6668 25.3333V28C27.6668 28.5523 27.2191 29 26.6668 29C26.1145 29 25.6668 28.5523 25.6668 28V25.3333C25.6668 24.1841 25.2103 23.0819 24.3976 22.2692C23.585 21.4565 22.4828 21 21.3335 21H10.6668C9.51756 21 8.41536 21.4565 7.6027 22.2692C6.79004 23.0819 6.3335 24.1841 6.3335 25.3333V28C6.3335 28.5523 5.88578 29 5.3335 29C4.78121 29 4.3335 28.5523 4.3335 28V25.3333C4.3335 23.6536 5.00076 22.0427 6.18849 20.855Z"/>
<path fill-rule="evenodd" clip-rule="evenodd" d="M16 5C13.6068 5 11.6667 6.9401 11.6667 9.33333C11.6667 11.7266 13.6068 13.6667 16 13.6667C18.3933 13.6667 20.3334 11.7266 20.3334 9.33333C20.3334 6.9401 18.3933 5 16 5ZM9.66669 9.33333C9.66669 5.83553 12.5022 3 16 3C19.4978 3 22.3334 5.83553 22.3334 9.33333C22.3334 12.8311 19.4978 15.6667 16 15.6667C12.5022 15.6667 9.66669 12.8311 9.66669 9.33333Z"/>
</g>
</svg>
