<svg width="24" height="24" viewBox="0 0 24 24" fill="none" xmlns="http://www.w3.org/2000/svg">
<path d="M20.0129 22.3962H19.7829C15.1402 21.8841 10.8111 19.8033 7.51106 16.4978C4.21098 13.1923 2.13739 8.85978 1.63291 4.21623C1.60576 3.87822 1.64656 3.53821 1.75291 3.21623C1.92196 2.72264 2.23948 2.2934 2.66196 1.98728C3.08445 1.68116 3.59124 1.51314 4.11292 1.50623H7.00291C7.66745 1.49802 8.31427 1.72069 8.83292 2.13624C9.2752 2.52649 9.55379 3.06936 9.61292 3.65623C9.73429 4.58176 9.95901 5.49078 10.2829 6.36623C10.4532 6.81356 10.4909 7.30047 10.3916 7.76869C10.2923 8.2369 10.0601 8.66656 9.72291 9.00623L8.72291 10.0062C10.033 12.1711 11.8481 13.9862 14.0129 15.2962L15.0129 14.2962C15.3526 13.959 15.7823 13.7269 16.2505 13.6276C16.7187 13.5282 17.2056 13.566 17.6529 13.7362C18.5253 14.0589 19.4309 14.2836 20.3529 14.4062C20.9624 14.487 21.5192 14.794 21.9129 15.2662C22.3099 15.7617 22.5189 16.3815 22.5029 17.0162V20.0162C22.5075 20.3374 22.4391 20.6554 22.3029 20.9462C22.1627 21.2671 21.9546 21.5537 21.6929 21.7862C21.4427 22.0262 21.142 22.2072 20.8129 22.3162C20.5525 22.387 20.2822 22.414 20.0129 22.3962ZM7.01292 2.46623H4.10291C3.89634 2.46991 3.69248 2.51408 3.50291 2.59623C3.31158 2.68163 3.13996 2.80567 2.99885 2.96055C2.85774 3.11543 2.75017 3.29781 2.6829 3.49624C2.61965 3.69298 2.59588 3.90027 2.61292 4.10623C2.94483 7.11415 3.9719 10.0036 5.61292 12.5462C7.10955 14.9023 9.10687 16.8996 11.4629 18.3962C13.9993 20.035 16.8817 21.062 19.8829 21.3962C20.0864 21.4146 20.2914 21.3873 20.4829 21.3162C20.684 21.2551 20.8687 21.1491 21.0229 21.0062C21.179 20.8648 21.3019 20.6907 21.3829 20.4962C21.4693 20.337 21.5107 20.1572 21.5029 19.9762V16.9762C21.511 16.5841 21.3878 16.2004 21.1529 15.8862C20.916 15.6079 20.585 15.4264 20.2229 15.3762C19.2251 15.2443 18.2454 14.9994 17.3029 14.6462C17.0346 14.5462 16.7432 14.525 16.4632 14.5852C16.1832 14.6455 15.9263 14.7846 15.7229 14.9862L14.4529 16.2562C14.3754 16.3333 14.2748 16.3829 14.1664 16.3973C14.058 16.4118 13.9479 16.3903 13.8529 16.3362C11.272 14.8651 9.13405 12.7271 7.66291 10.1462C7.60882 10.0512 7.58737 9.94112 7.60181 9.83276C7.61626 9.72439 7.6658 9.62374 7.7429 9.54623L9.01292 8.27624C9.21451 8.07281 9.35364 7.81593 9.41389 7.53594C9.47414 7.25596 9.45299 6.96458 9.35291 6.69624C8.99979 5.75369 8.75488 4.77408 8.6229 3.77624C8.59374 3.42895 8.43699 3.10477 8.1829 2.86623C7.8477 2.61465 7.44192 2.47472 7.0229 2.46623H7.01292ZM19.0129 9.46623C18.8977 9.46625 18.7859 9.42646 18.6966 9.35357C18.6073 9.28068 18.5459 9.17917 18.5229 9.06623C18.3509 8.18842 17.923 7.38117 17.2929 6.74624C16.6609 6.11221 15.8524 5.68353 14.9729 5.51623C14.9072 5.50375 14.8447 5.47847 14.7888 5.44181C14.7329 5.40516 14.6848 5.35786 14.6472 5.30261C14.6096 5.24735 14.5832 5.18524 14.5696 5.11981C14.556 5.05437 14.5554 4.98689 14.5679 4.92123C14.5804 4.85557 14.6057 4.793 14.6423 4.73711C14.679 4.68123 14.7263 4.63311 14.7815 4.5955C14.8368 4.55789 14.8989 4.53154 14.9643 4.51794C15.0298 4.50434 15.0972 4.50375 15.1629 4.51623C16.2379 4.7282 17.226 5.25361 18.0029 6.02624C18.7722 6.80558 19.297 7.79267 19.5129 8.86623C19.5365 8.99734 19.5078 9.13246 19.4331 9.24271C19.3583 9.35297 19.2434 9.4296 19.1129 9.45623L19.0129 9.46623ZM23.0129 9.46623C22.8912 9.46686 22.7735 9.42217 22.683 9.34083C22.5924 9.25949 22.5353 9.14734 22.5229 9.02624C22.306 7.11019 21.4448 5.3246 20.0804 3.962C18.716 2.5994 16.9293 1.74059 15.0129 1.52624C14.8818 1.51116 14.7621 1.44487 14.6796 1.34185C14.5972 1.23883 14.5589 1.10742 14.5729 0.976235C14.5777 0.910275 14.5961 0.846015 14.6268 0.787484C14.6576 0.728953 14.7002 0.677415 14.7518 0.636102C14.8034 0.594789 14.8631 0.564587 14.9269 0.547402C14.9908 0.530217 15.0575 0.526416 15.1229 0.536233C17.2645 0.771208 19.2614 1.73089 20.7829 3.25623C22.3053 4.78091 23.2675 6.77563 23.5129 8.91624C23.527 9.04742 23.4886 9.17883 23.4062 9.28185C23.3238 9.38488 23.204 9.45115 23.0729 9.46623H23.0129Z" fill="#791A3C"/>
</svg>
