<svg width="16" height="16" viewBox="0 0 16 16" fill="none" xmlns="http://www.w3.org/2000/svg">
<path fill-rule="evenodd" clip-rule="evenodd" d="M8.30697 0.938698C8.12642 0.798266 7.87359 0.798266 7.69303 0.938698L1.69303 5.60536C1.57124 5.70009 1.5 5.84575 1.5 6.00004V13.3334C1.5 13.8196 1.69315 14.2859 2.03697 14.6297C2.38079 14.9736 2.8471 15.1667 3.33333 15.1667H12.6667C13.1529 15.1667 13.6192 14.9736 13.963 14.6297C14.3068 14.2859 14.5 13.8196 14.5 13.3334V6.00004C14.5 5.84575 14.4288 5.70009 14.307 5.60536L8.30697 0.938698ZM2.5 13.3334V6.24458L8 1.9668L13.5 6.24458V13.3334C13.5 13.5544 13.4122 13.7663 13.2559 13.9226C13.0996 14.0789 12.8877 14.1667 12.6667 14.1667H10.5V8C10.5 7.72386 10.2761 7.5 10 7.5H6C5.72386 7.5 5.5 7.72386 5.5 8V14.1667H3.33333C3.11232 14.1667 2.90036 14.0789 2.74408 13.9226C2.5878 13.7663 2.5 13.5544 2.5 13.3334ZM6.5 14.1667H9.5V8.5H6.5V14.1667Z" fill="#2C2B3C"/>
</svg>
