<svg width="180" height="44" viewBox="0 0 180 44" fill="none" xmlns="http://www.w3.org/2000/svg">
<path fill-rule="evenodd" clip-rule="evenodd" d="M5.54734 0H38.8313C41.8911 0 44.3787 2.46641 44.3787 5.5V38.5C44.3787 41.5336 41.8911 44 38.8313 44H30.4411V40.9234C30.4411 38.1133 29.2709 35.3977 27.234 33.4813L27.208 33.4555L26.9567 33.232C26.948 33.2234 26.9306 33.2062 26.9133 33.1977C26.1332 32.6133 25.6652 31.7367 25.6132 30.7828V19.6625C25.6132 19.1898 25.2231 18.8031 24.7464 18.8031H19.7018C19.2251 18.8031 18.835 19.1898 18.835 19.6625V30.7742C18.7743 31.7281 18.2976 32.6047 17.5088 33.1633C17.4742 33.1891 17.4395 33.2148 17.4048 33.2492L17.1621 33.4898C15.1339 35.432 13.9811 38.1648 14.0071 40.9664V44H5.54734C2.48763 44 0 41.5336 0 38.5V5.5C0 2.46641 2.48763 0 5.54734 0ZM23.923 14.5664C22.9262 13.8875 21.5913 13.9047 20.6119 14.6094C20.4559 14.7211 20.2825 14.7727 20.1092 14.7812C19.8405 14.7812 19.5804 14.6523 19.4071 14.4203C19.1297 14.0336 19.2164 13.4922 19.6064 13.2172C21.1753 12.0914 23.3075 12.0656 24.9024 13.1484C25.2924 13.4148 25.3965 13.9477 25.1278 14.343C24.8591 14.7297 24.3217 14.8328 23.923 14.5664ZM26.4799 11.2578C23.923 9.53047 20.5165 9.58203 18.0116 11.3781C17.8642 11.4898 17.6822 11.5414 17.5088 11.5414C17.2401 11.5414 16.9801 11.4211 16.8068 11.1891C16.5207 10.8023 16.6074 10.2609 16.9975 9.98593C20.1005 7.76015 24.3043 7.70859 27.4594 9.83984C27.8494 10.1062 27.9534 10.6391 27.6847 11.0344C27.416 11.4211 26.8786 11.5242 26.4799 11.2578ZM15.9747 7.54531L15.3333 8.00937C15.1772 8.12109 15.0039 8.17265 14.8045 8.18125C14.5358 8.18125 14.2758 8.06093 14.1024 7.8289C13.8251 7.44218 13.9031 6.90937 14.2931 6.62578L15.0125 6.11015C17.1968 4.75234 19.7191 4.03047 22.3021 4.03047H22.3628C24.9544 4.03047 27.4854 4.76094 29.6696 6.14453L29.7043 6.17031L30.051 6.41094C30.4411 6.68594 30.5364 7.21875 30.2591 7.60547C29.9817 7.99219 29.4443 8.08672 29.0542 7.81172L28.7249 7.57969C26.8266 6.38515 24.625 5.74922 22.3714 5.74922H22.3194C20.0745 5.74922 17.8816 6.36797 15.9747 7.54531Z" />
<path d="M15.7406 44H28.6989V40.9234C28.6989 38.5859 27.7281 36.3344 26.0465 34.7359L25.8298 34.5469C24.651 33.6531 23.9316 32.3039 23.8709 30.8344V20.5219H20.5599V30.8516C20.4819 32.3125 19.7538 33.6445 18.575 34.5211L18.3669 34.7273C16.6767 36.343 15.7146 38.6203 15.7406 40.9664V44Z"/>
<path d="M65.5586 23.6063L61.8324 11.5682H61.7372C61.8712 14.0171 61.9383 15.6509 61.9383 16.4695V23.6063H59.0061V8.26219H63.4732L67.1358 19.996H67.1994L71.0843 8.26219H75.5514V23.6063H72.4922V16.3436C72.4922 16.0007 72.4957 15.6054 72.5028 15.1576C72.5169 14.7098 72.5663 13.5203 72.651 11.5892H72.5557L68.5649 23.6063H65.5586Z"/>
<path d="M81.7758 17.7185C81.7758 18.88 81.9663 19.7581 82.3474 20.3528C82.7356 20.9475 83.3636 21.2449 84.2317 21.2449C85.0926 21.2449 85.7101 20.951 86.0841 20.3633C86.4652 19.7686 86.6558 18.887 86.6558 17.7185C86.6558 16.557 86.4652 15.6859 86.0841 15.1051C85.7031 14.5244 85.0785 14.234 84.2105 14.234C83.3495 14.234 82.7285 14.5244 82.3474 15.1051C81.9663 15.6789 81.7758 16.55 81.7758 17.7185ZM89.9585 17.7185C89.9585 19.6286 89.4504 21.1225 88.4342 22.2C87.4179 23.2775 86.003 23.8163 84.1893 23.8163C83.0531 23.8163 82.051 23.5714 81.183 23.0816C80.315 22.5848 79.6481 21.8746 79.1823 20.951C78.7165 20.0274 78.4837 18.9499 78.4837 17.7185C78.4837 15.8013 78.9882 14.311 79.9974 13.2475C81.0066 12.1839 82.425 11.6522 84.2528 11.6522C85.389 11.6522 86.3911 11.8971 87.2592 12.3869C88.1272 12.8766 88.7941 13.5798 89.2598 14.4964C89.7256 15.413 89.9585 16.487 89.9585 17.7185Z" />
<path d="M100.883 20.1219C100.883 21.3254 100.459 22.242 99.6126 22.8717C98.7728 23.5014 97.5131 23.8163 95.8335 23.8163C94.9726 23.8163 94.2386 23.7568 93.6317 23.6378C93.0248 23.5259 92.4567 23.358 91.9274 23.1341V20.4892C92.5273 20.7691 93.2012 21.0035 93.9493 21.1924C94.7044 21.3813 95.3678 21.4758 95.9394 21.4758C97.1109 21.4758 97.6966 21.14 97.6966 20.4683C97.6966 20.2164 97.619 20.0135 97.4637 19.8595C97.3085 19.6986 97.0403 19.5202 96.6592 19.3243C96.2781 19.1214 95.77 18.887 95.1349 18.6211C94.2245 18.2432 93.5541 17.8934 93.1236 17.5715C92.7002 17.2497 92.3897 16.8823 92.1921 16.4695C92.0015 16.0497 91.9062 15.5354 91.9062 14.9267C91.9062 13.8842 92.312 13.0795 93.1236 12.5128C93.9422 11.9391 95.0996 11.6522 96.5957 11.6522C98.0212 11.6522 99.4079 11.96 100.756 12.5758L99.782 14.8847C99.1892 14.6329 98.6352 14.4264 98.12 14.2655C97.6049 14.1046 97.0791 14.0241 96.5428 14.0241C95.5901 14.0241 95.1137 14.2795 95.1137 14.7903C95.1137 15.0772 95.2654 15.3255 95.5689 15.5354C95.8794 15.7454 96.5534 16.0567 97.5907 16.4695C98.5152 16.8404 99.1927 17.1867 99.6232 17.5086C100.054 17.8304 100.371 18.2013 100.576 18.6211C100.781 19.0409 100.883 19.5412 100.883 20.1219Z" />
<path d="M108.208 23.8163C104.524 23.8163 102.682 21.8117 102.682 17.8024C102.682 15.8083 103.183 14.2865 104.186 13.237C105.188 12.1804 106.624 11.6522 108.494 11.6522C109.863 11.6522 111.091 11.9181 112.178 12.4498L111.225 14.9267C110.717 14.7238 110.244 14.5594 109.807 14.4334C109.369 14.3005 108.931 14.234 108.494 14.234C106.814 14.234 105.975 15.4165 105.975 17.7814C105.975 20.0764 106.814 21.2239 108.494 21.2239C109.115 21.2239 109.69 21.1434 110.219 20.9825C110.749 20.8146 111.278 20.5557 111.807 20.2059V22.9451C111.285 23.274 110.756 23.5014 110.219 23.6273C109.69 23.7533 109.02 23.8163 108.208 23.8163Z" />
<path d="M117.132 17.7185C117.132 18.88 117.322 19.7581 117.703 20.3528C118.092 20.9475 118.72 21.2449 119.588 21.2449C120.449 21.2449 121.066 20.951 121.44 20.3633C121.821 19.7686 122.012 18.887 122.012 17.7185C122.012 16.557 121.821 15.6859 121.44 15.1051C121.059 14.5244 120.435 14.234 119.567 14.234C118.706 14.234 118.085 14.5244 117.703 15.1051C117.322 15.6789 117.132 16.55 117.132 17.7185ZM125.315 17.7185C125.315 19.6286 124.806 21.1225 123.79 22.2C122.774 23.2775 121.359 23.8163 119.545 23.8163C118.409 23.8163 117.407 23.5714 116.539 23.0816C115.671 22.5848 115.004 21.8746 114.538 20.951C114.073 20.0274 113.84 18.9499 113.84 17.7185C113.84 15.8013 114.344 14.311 115.353 13.2475C116.363 12.1839 117.781 11.6522 119.609 11.6522C120.745 11.6522 121.747 11.8971 122.615 12.3869C123.483 12.8766 124.15 13.5798 124.616 14.4964C125.082 15.413 125.315 16.487 125.315 17.7185Z" />
<path d="M143.31 23.6063H139.573L137.477 15.5459C137.4 15.2591 137.266 14.6678 137.075 13.7722C136.892 12.8696 136.786 12.2644 136.758 11.9565C136.715 12.3344 136.609 12.9431 136.44 13.7827C136.271 14.6154 136.14 15.2101 136.048 15.5669L133.963 23.6063H130.237L126.288 8.26219H129.517L131.497 16.6375C131.842 18.1838 132.093 19.5237 132.248 20.6572C132.29 20.2583 132.386 19.6426 132.534 18.81C132.689 17.9704 132.834 17.3197 132.968 16.8579L135.223 8.26219H138.324L140.579 16.8579C140.678 17.2427 140.801 17.8304 140.95 18.6211C141.098 19.4117 141.211 20.0904 141.288 20.6572C141.359 20.1114 141.472 19.4327 141.627 18.6211C141.782 17.8024 141.923 17.1412 142.05 16.6375L144.019 8.26219H147.248L143.31 23.6063Z"/>
<path d="M148.804 8.83944C148.804 7.7969 149.39 7.27564 150.561 7.27564C151.733 7.27564 152.319 7.7969 152.319 8.83944C152.319 9.33622 152.17 9.72454 151.874 10.0044C151.585 10.2773 151.147 10.4137 150.561 10.4137C149.39 10.4137 148.804 9.88897 148.804 8.83944ZM152.17 23.6063H148.942V11.8726H152.17V23.6063Z"/>
<path d="M166.493 23.6063H163.264V16.7529C163.264 15.9063 163.112 15.2731 162.809 14.8533C162.505 14.4264 162.022 14.213 161.359 14.213C160.455 14.213 159.803 14.5139 159.4 15.1156C158.998 15.7104 158.797 16.7004 158.797 18.0858V23.6063H155.568V11.8726H158.035L158.469 13.3734H158.649C159.009 12.8067 159.503 12.3799 160.131 12.093C160.766 11.7991 161.486 11.6522 162.29 11.6522C163.666 11.6522 164.711 12.023 165.424 12.7647C166.136 13.4994 166.493 14.5629 166.493 15.9553V23.6063Z"/>
<path d="M174.718 13.9297C174.033 13.9297 173.497 14.1466 173.109 14.5804C172.721 15.0072 172.498 15.6159 172.442 16.4066H176.973C176.958 15.6159 176.75 15.0072 176.348 14.5804C175.946 14.1466 175.402 13.9297 174.718 13.9297ZM175.173 23.8163C173.268 23.8163 171.778 23.295 170.706 22.2525C169.633 21.2099 169.097 19.7336 169.097 17.8234C169.097 15.8573 169.591 14.339 170.579 13.2685C171.574 12.1909 172.946 11.6522 174.697 11.6522C176.369 11.6522 177.671 12.1245 178.603 13.0691C179.534 14.0136 180 15.3185 180 16.9838V18.5371H172.368C172.403 19.4467 172.675 20.1569 173.183 20.6677C173.691 21.1784 174.404 21.4338 175.321 21.4338C176.034 21.4338 176.708 21.3604 177.343 21.2134C177.978 21.0665 178.642 20.8321 179.333 20.5102V22.9871C178.769 23.267 178.165 23.4734 177.523 23.6063C176.881 23.7463 176.097 23.8163 175.173 23.8163Z" />
<path d="M65.895 39.2508V35.8494C65.895 35.4327 65.8052 35.121 65.6256 34.9143C65.4459 34.7044 65.1668 34.5995 64.7883 34.5995C64.2911 34.5995 63.9238 34.741 63.6865 35.024C63.4491 35.3071 63.3304 35.7428 63.3304 36.3312V39.2508H62.5317V35.8494C62.5317 35.4327 62.4418 35.121 62.2622 34.9143C62.0826 34.7044 61.8019 34.5995 61.4202 34.5995C60.9198 34.5995 60.5525 34.7489 60.3183 35.0479C60.0873 35.3437 59.9719 35.8303 59.9719 36.5077V39.2508H59.1731V34.0222H59.8227L59.9526 34.7378H59.9911C60.1419 34.4834 60.3536 34.2846 60.6262 34.1415C60.9021 33.9984 61.2101 33.9268 61.5501 33.9268C62.3745 33.9268 62.9134 34.2226 63.1668 34.8141H63.2053C63.3625 34.5406 63.5902 34.3244 63.8885 34.1653C64.1869 34.0063 64.5269 33.9268 64.9086 33.9268C65.5053 33.9268 65.9511 34.0795 66.2463 34.3848C66.5446 34.6869 66.6937 35.1719 66.6937 35.8398V39.2508H65.895Z" />
<path d="M71.5872 39.2508L71.4284 38.5066H71.3899C71.1269 38.8342 70.8638 39.0568 70.6008 39.1745C70.341 39.289 70.0154 39.3462 69.624 39.3462C69.1012 39.3462 68.6906 39.2126 68.3923 38.9455C68.0971 38.6783 67.9496 38.2983 67.9496 37.8053C67.9496 36.7494 68.8013 36.196 70.5046 36.1451L71.3995 36.1165V35.7921C71.3995 35.3818 71.3097 35.0797 71.1301 34.8857C70.9537 34.6885 70.6698 34.5899 70.2784 34.5899C69.839 34.5899 69.3418 34.7235 68.7868 34.9906L68.5414 34.3848C68.8012 34.2448 69.0851 34.1351 69.3931 34.0556C69.7042 33.9761 70.0154 33.9363 70.3265 33.9363C70.9553 33.9363 71.4204 34.0747 71.7219 34.3514C72.0267 34.6281 72.179 35.0717 72.179 35.6824V39.2508H71.5872ZM69.7828 38.6926C70.28 38.6926 70.6698 38.5575 70.9521 38.2871C71.2375 38.0168 71.3803 37.6383 71.3803 37.1517V36.6794L70.5816 36.7128C69.9464 36.7351 69.4877 36.8337 69.2054 37.0086C68.9264 37.1804 68.7868 37.4491 68.7868 37.8148C68.7868 38.1011 68.8734 38.3189 69.0466 38.4684C69.2231 38.6179 69.4685 38.6926 69.7828 38.6926Z" />
<path d="M76.2353 33.9268C76.4694 33.9268 76.6795 33.9459 76.8656 33.9841L76.7549 34.7187C76.5368 34.671 76.3443 34.6472 76.1775 34.6472C75.7509 34.6472 75.3852 34.8189 75.0805 35.1624C74.7789 35.5059 74.6282 35.9336 74.6282 36.4457V39.2508H73.8294V34.0222H74.4886L74.58 34.9906H74.6185C74.8142 34.6503 75.05 34.388 75.3259 34.2035C75.6017 34.019 75.9049 33.9268 76.2353 33.9268Z"/>
<path d="M78.6411 36.5745C78.779 36.3805 78.9891 36.1261 79.2714 35.8112L80.9747 34.0222H81.9226L79.7863 36.2501L82.0718 39.2508H81.1047L79.2425 36.7796L78.6411 37.2948V39.2508H77.852V31.8277H78.6411V35.7635C78.6411 35.9384 78.6283 36.2087 78.6026 36.5745H78.6411Z"/>
<path d="M85.2571 39.3462C84.4776 39.3462 83.8617 39.1109 83.4094 38.6402C82.9604 38.1695 82.7358 37.5159 82.7358 36.6794C82.7358 35.8366 82.9443 35.1672 83.3613 34.671C83.7815 34.1749 84.3445 33.9268 85.0502 33.9268C85.711 33.9268 86.2339 34.1431 86.6188 34.5756C87.0037 35.005 87.1962 35.5727 87.1962 36.2787V36.7796H83.5634C83.5794 37.3934 83.735 37.8594 84.0301 38.1774C84.3285 38.4955 84.7471 38.6545 85.286 38.6545C85.8538 38.6545 86.4151 38.5368 86.9701 38.3014V39.0075C86.6878 39.1283 86.4199 39.2142 86.1665 39.2651C85.9163 39.3192 85.6132 39.3462 85.2571 39.3462ZM85.0406 34.5899C84.6172 34.5899 84.2787 34.7267 84.0253 35.0002C83.7751 35.2737 83.6276 35.6522 83.5827 36.1356H86.3397C86.3397 35.6363 86.2275 35.2546 86.0029 34.9906C85.7784 34.7235 85.4576 34.5899 85.0406 34.5899Z" />
<path d="M90.2661 38.6926C90.4072 38.6926 90.5435 38.6831 90.675 38.664C90.8066 38.6418 90.9108 38.6195 90.9878 38.5972V39.2031C90.9012 39.2444 90.7729 39.2778 90.6029 39.3033C90.4361 39.3319 90.2853 39.3462 90.1506 39.3462C89.1305 39.3462 88.6205 38.8135 88.6205 37.7481V34.6376H87.865V34.256L88.6205 33.9268L88.9573 32.8105H89.4192V34.0222H90.9493V34.6376H89.4192V37.7147C89.4192 38.0295 89.4946 38.2712 89.6453 38.4398C89.7961 38.6084 90.003 38.6926 90.2661 38.6926Z" />
<path d="M94.5003 39.3462C94.1571 39.3462 93.8427 39.2842 93.5572 39.1602C93.2749 39.0329 93.0376 38.8389 92.8451 38.5781H92.7874C92.8259 38.8835 92.8451 39.1729 92.8451 39.4464V41.5979H92.0464V34.0222H92.6959L92.8066 34.7378H92.8451C93.0504 34.4516 93.2894 34.2448 93.562 34.1176C93.8347 33.9904 94.1475 33.9268 94.5003 33.9268C95.1996 33.9268 95.7385 34.1637 96.117 34.6376C96.4987 35.1115 96.6896 35.7762 96.6896 36.6317C96.6896 37.4904 96.4955 38.1583 96.1074 38.6354C95.7225 39.1093 95.1868 39.3462 94.5003 39.3462ZM94.3848 34.5995C93.8459 34.5995 93.4562 34.7473 93.2156 35.0431C92.975 35.3389 92.8515 35.8096 92.8451 36.4552V36.6317C92.8451 37.3664 92.9686 37.8928 93.2156 38.2108C93.4626 38.5257 93.8588 38.6831 94.4041 38.6831C94.8596 38.6831 95.2156 38.5002 95.4723 38.1345C95.7321 37.7687 95.862 37.2646 95.862 36.6222C95.862 35.9702 95.7321 35.4709 95.4723 35.1242C95.2156 34.7744 94.8532 34.5995 94.3848 34.5995Z" />
<path d="M98.8885 39.2508H98.0898V31.8277H98.8885V39.2508Z" />
<path d="M103.825 39.2508L103.667 38.5066H103.628C103.365 38.8342 103.102 39.0568 102.839 39.1745C102.579 39.289 102.253 39.3462 101.862 39.3462C101.339 39.3462 100.929 39.2126 100.63 38.9455C100.335 38.6783 100.188 38.2983 100.188 37.8053C100.188 36.7494 101.039 36.196 102.743 36.1451L103.638 36.1165V35.7921C103.638 35.3818 103.548 35.0797 103.368 34.8857C103.192 34.6885 102.908 34.5899 102.517 34.5899C102.077 34.5899 101.58 34.7235 101.025 34.9906L100.78 34.3848C101.039 34.2448 101.323 34.1351 101.631 34.0556C101.942 33.9761 102.253 33.9363 102.565 33.9363C103.193 33.9363 103.658 34.0747 103.96 34.3514C104.265 34.6281 104.417 35.0717 104.417 35.6824V39.2508H103.825ZM102.021 38.6926C102.518 38.6926 102.908 38.5575 103.19 38.2871C103.476 38.0168 103.618 37.6383 103.618 37.1517V36.6794L102.82 36.7128C102.185 36.7351 101.726 36.8337 101.444 37.0086C101.164 37.1804 101.025 37.4491 101.025 37.8148C101.025 38.1011 101.112 38.3189 101.285 38.4684C101.461 38.6179 101.707 38.6926 102.021 38.6926Z" />
<path d="M108.175 39.3462C107.412 39.3462 106.82 39.114 106.4 38.6497C105.983 38.1822 105.774 37.5222 105.774 36.6699C105.774 35.7953 105.986 35.1195 106.409 34.6424C106.836 34.1653 107.442 33.9268 108.228 33.9268C108.481 33.9268 108.735 33.9538 108.988 34.0079C109.242 34.062 109.441 34.1256 109.585 34.1987L109.339 34.8714C109.163 34.8014 108.971 34.7442 108.762 34.6996C108.554 34.6519 108.369 34.6281 108.209 34.6281C107.137 34.6281 106.602 35.3055 106.602 36.6604C106.602 37.3028 106.732 37.7958 106.991 38.1392C107.254 38.4827 107.643 38.6545 108.156 38.6545C108.595 38.6545 109.046 38.5606 109.508 38.373V39.0743C109.155 39.2556 108.711 39.3462 108.175 39.3462Z" />
<path d="M112.992 39.3462C112.212 39.3462 111.596 39.1109 111.144 38.6402C110.695 38.1695 110.47 37.5159 110.47 36.6794C110.47 35.8366 110.679 35.1672 111.096 34.671C111.516 34.1749 112.079 33.9268 112.785 33.9268C113.445 33.9268 113.968 34.1431 114.353 34.5756C114.738 35.005 114.931 35.5727 114.931 36.2787V36.7796H111.298C111.314 37.3934 111.469 37.8594 111.765 38.1774C112.063 38.4955 112.481 38.6545 113.02 38.6545C113.588 38.6545 114.15 38.5368 114.704 38.3014V39.0075C114.422 39.1283 114.154 39.2142 113.901 39.2651C113.651 39.3192 113.348 39.3462 112.992 39.3462ZM112.775 34.5899C112.352 34.5899 112.013 34.7267 111.76 35.0002C111.51 35.2737 111.362 35.6522 111.317 36.1356H114.074C114.074 35.6363 113.962 35.2546 113.737 34.9906C113.513 34.7235 113.192 34.5899 112.775 34.5899Z" />
</svg>
