<svg width="16" height="16" viewBox="0 0 16 16" fill="none" xmlns="http://www.w3.org/2000/svg">
<path fill-rule="evenodd" clip-rule="evenodd" d="M12.7399 12.0328C13.8225 11.0283 14.5 9.59329 14.5 8C14.5 4.96243 12.0376 2.5 9 2.5C5.96243 2.5 3.5 4.96243 3.5 8C3.5 11.0376 5.96243 13.5 9 13.5C10.0818 13.5 11.0906 13.1877 11.9412 12.6483L13.6464 14.3536C13.8417 14.5488 14.1583 14.5488 14.3536 14.3536C14.5488 14.1583 14.5488 13.8417 14.3536 13.6464L12.7399 12.0328ZM9 3.5C6.51472 3.5 4.5 5.51472 4.5 8C4.5 10.4853 6.51472 12.5 9 12.5C10.007 12.5 10.9368 12.1692 11.6866 11.6104C11.6956 11.6031 11.7047 11.5963 11.714 11.5898C12.799 10.7681 13.5 9.46593 13.5 8C13.5 5.51472 11.4853 3.5 9 3.5Z" fill="#2C2B3C"/>
<path d="M4.5 3C4.5 2.72386 4.27614 2.5 4 2.5H1C0.723858 2.5 0.5 2.72386 0.5 3C0.5 3.27614 0.723858 3.5 1 3.5L4 3.5C4.27614 3.5 4.5 3.27614 4.5 3Z" fill="#2C2B3C"/>
<path d="M2.5 8C2.5 7.72386 2.27614 7.5 2 7.5H1C0.723858 7.5 0.5 7.72386 0.5 8C0.5 8.27614 0.723858 8.5 1 8.5H2C2.27614 8.5 2.5 8.27614 2.5 8Z" fill="#2C2B3C"/>
<path d="M4 12.5C4.27614 12.5 4.5 12.7239 4.5 13C4.5 13.2761 4.27614 13.5 4 13.5H1C0.723858 13.5 0.5 13.2761 0.5 13C0.5 12.7239 0.723858 12.5 1 12.5H4Z" fill="#2C2B3C"/>
</svg>
