<svg width="158" height="25" viewBox="0 0 158 25" fill="none" xmlns="http://www.w3.org/2000/svg">
<path d="M11.4537 24.9667C14.1668 24.9667 16.4422 24.2843 18.28 22.9194C20.1288 21.5546 21.4306 19.7071 22.1855 17.3768L17.6893 16.1119C17.2517 17.5544 16.5133 18.6806 15.474 19.4907C14.4348 20.3007 13.0947 20.7057 11.4537 20.7057C9.21113 20.7057 7.52097 19.9623 6.38325 18.4754C5.25647 16.9774 4.69308 14.98 4.69308 12.4834C4.69308 9.98668 5.25647 7.9949 6.38325 6.50799C7.52097 5.00999 9.21113 4.26098 11.4537 4.26098C13.0947 4.26098 14.4348 4.666 15.474 5.47603C16.5133 6.27497 17.2517 7.40124 17.6893 8.85486L22.1855 7.58988C21.4306 5.25965 20.1288 3.41212 18.28 2.04727C16.4422 0.682423 14.1668 0 11.4537 0C9.0908 0 7.05056 0.521527 5.33305 1.56458C3.62647 2.60763 2.30825 4.0668 1.37839 5.94208C0.459462 7.81736 0 9.99778 0 12.4834C0 14.9689 0.459462 17.1494 1.37839 19.0246C2.30825 20.8999 3.62647 22.3591 5.33305 23.4021C7.05056 24.4452 9.0908 24.9667 11.4537 24.9667Z" fill="#2C2B3C"/>
<path d="M25.7658 24.4674H30.2948V15.3462C30.2948 14.2255 30.4151 13.3267 30.6558 12.6498C30.9074 11.9729 31.2247 11.4625 31.6075 11.1185C31.9904 10.7634 32.4007 10.5249 32.8382 10.4028C33.2758 10.2807 33.6861 10.2197 34.0689 10.2197C35.0207 10.2197 35.7536 10.4361 36.2678 10.8688C36.7929 11.3016 37.1703 11.8398 37.4 12.4834C37.6298 13.1269 37.7665 13.7705 37.8103 14.4141C37.854 15.0466 37.8759 15.5681 37.8759 15.9787L37.8759 24.4674H42.4049L42.4049 14.3808C42.4049 14.0812 42.383 13.6041 42.3393 12.9494C42.2955 12.2947 42.1697 11.5735 41.9619 10.7856C41.754 9.98668 41.4039 9.22104 40.9117 8.48868C40.4303 7.75632 39.7521 7.15158 38.8769 6.67443C38.0017 6.19729 36.8695 5.95872 35.4802 5.95872C34.2002 5.95872 33.0844 6.1751 32.1326 6.60786C31.1809 7.04061 30.3823 7.61762 29.7369 8.33888V0.499334L25.7658 0.499334L25.7658 24.4674Z" fill="#2C2B3C"/>
<path d="M54.9004 24.9667C56.607 24.9667 58.1768 24.5118 59.6099 23.6019C61.0539 22.692 62.1096 21.4159 62.7769 19.7736L58.3135 18.4754C57.6353 19.9845 56.4101 20.739 54.6378 20.739C53.4235 20.739 52.4663 20.395 51.7662 19.7071C51.077 19.0191 50.6504 18.0315 50.4863 16.7443L62.9246 16.7443C63.1105 14.5695 62.8918 12.6775 62.2682 11.0686C61.6446 9.45961 60.682 8.21127 59.3801 7.32357C58.0783 6.43586 56.4976 5.99201 54.6378 5.99201C52.8875 5.99201 51.3396 6.39703 49.994 7.20706C48.6484 8.00599 47.5927 9.13227 46.827 10.5859C46.0612 12.0395 45.6783 13.7483 45.6783 15.7124C45.6783 17.51 46.0667 19.1079 46.8434 20.506C47.631 21.893 48.7141 22.986 50.0924 23.785C51.4818 24.5728 53.0844 24.9667 54.9004 24.9667ZM54.8348 9.92011C55.9068 9.92011 56.7273 10.192 57.2962 10.7357C57.876 11.2794 58.2479 12.1616 58.412 13.3822H50.6011C51.0715 11.0741 52.4827 9.92011 54.8348 9.92011Z" fill="#2C2B3C"/>
<path d="M74.8673 24.9667C76.5738 24.9667 78.1437 24.5118 79.5768 23.6019C81.0208 22.692 82.0765 21.4159 82.7438 19.7736L78.2804 18.4754C77.6022 19.9845 76.3769 20.739 74.6047 20.739C73.3904 20.739 72.4332 20.395 71.7331 19.7071C71.0439 19.0191 70.6172 18.0315 70.4531 16.7443L82.8915 16.7443C83.0774 14.5695 82.8586 12.6775 82.2351 11.0686C81.6115 9.45961 80.6488 8.21127 79.347 7.32357C78.0452 6.43586 76.4644 5.99201 74.6047 5.99201C72.8544 5.99201 71.3064 6.39703 69.9609 7.20706C68.6153 8.00599 67.5596 9.13227 66.7939 10.5859C66.0281 12.0395 65.6452 13.7483 65.6452 15.7124C65.6452 17.51 66.0336 19.1079 66.8103 20.506C67.5979 21.893 68.6809 22.986 70.0593 23.785C71.4486 24.5728 73.0513 24.9667 74.8673 24.9667ZM74.8016 9.92011C75.8737 9.92011 76.6942 10.192 77.263 10.7357C77.8428 11.2794 78.2148 12.1616 78.3789 13.3822L70.568 13.3822C71.0384 11.0741 72.4496 9.92011 74.8016 9.92011Z" fill="#2C2B3C"/>
<path d="M86.5966 24.4674H91.0928V15.2796C91.0928 13.1935 91.9023 11.7732 93.5214 11.0186C94.0465 10.7634 94.6318 10.6136 95.2772 10.5692C95.9336 10.5138 96.5079 10.5637 97.0002 10.719V6.49134C96.2016 6.39148 95.403 6.41367 94.6044 6.55792C93.8058 6.69108 93.0838 6.95739 92.4384 7.35686C92.0227 7.60098 91.6562 7.89503 91.339 8.23902C91.0326 8.583 90.7646 8.96582 90.5349 9.38748V6.49134H86.5966V24.4674Z" fill="#2C2B3C"/>
<path d="M98.4806 24.4674L113.741 24.4674V20.5393H105.405L114.07 7.05726V6.49134L99.4652 6.49134V10.4194L107.178 10.4194L98.4806 23.9015V24.4674Z" fill="#2C2B3C"/>
<path d="M118.407 24.4674L122.87 24.4674V19.9401L118.407 19.9401V24.4674Z" fill="#2C2B3C"/>
<path d="M128.197 24.4674H132.693V15.2796C132.693 13.1935 133.503 11.7732 135.122 11.0186C135.647 10.7634 136.232 10.6136 136.878 10.5692C137.534 10.5138 138.108 10.5637 138.601 10.719V6.49134C137.802 6.39148 137.003 6.41367 136.205 6.55792C135.406 6.69108 134.684 6.95739 134.039 7.35686C133.623 7.60098 133.257 7.89503 132.939 8.23902C132.633 8.583 132.365 8.96582 132.135 9.38748V6.49134L128.197 6.49134V24.4674Z" fill="#2C2B3C"/>
<path d="M148.318 25C149.598 25 150.714 24.7836 151.666 24.3509C152.618 23.9181 153.416 23.3411 154.062 22.6198V24.4674H158V6.49134L153.504 6.49134V15.6125C153.504 16.7221 153.378 17.621 153.126 18.3089C152.886 18.9858 152.574 19.5018 152.191 19.8569C151.808 20.2008 151.398 20.4339 150.96 20.5559C150.523 20.678 150.113 20.739 149.73 20.739C148.778 20.739 148.04 20.5226 147.514 20.0899C147 19.6571 146.628 19.119 146.399 18.4754C146.169 17.8318 146.032 17.1937 145.988 16.5613C145.945 15.9177 145.923 15.3906 145.923 14.98V6.49134H141.394V16.5779C141.394 16.8775 141.416 17.3546 141.459 18.0093C141.503 18.664 141.629 19.3908 141.837 20.1897C142.045 20.9776 142.389 21.7377 142.871 22.47C143.363 23.2024 144.047 23.8071 144.922 24.2843C145.797 24.7614 146.929 25 148.318 25Z" fill="#2C2B3C"/>
</svg>
