<svg width="32" height="32" viewBox="0 0 32 32" fill="none" xmlns="http://www.w3.org/2000/svg">
<path fill-rule="evenodd" clip-rule="evenodd" d="M19.4101 3.63227C20.4214 3.21324 21.5053 2.99756 22.6 2.99756C23.6947 2.99756 24.7786 3.21324 25.7899 3.63227C26.8011 4.05124 27.7198 4.66531 28.4936 5.43939C29.2677 6.21319 29.8821 7.13224 30.3011 8.14339C30.7201 9.15469 30.9358 10.2386 30.9358 11.3333C30.9358 12.428 30.7201 13.512 30.3011 14.5233C29.882 15.5345 29.2678 16.4534 28.4936 17.2273L16.7071 29.0138C16.3166 29.4043 15.6834 29.4043 15.2929 29.0138L3.50622 17.2271C1.9431 15.664 1.06494 13.5439 1.06494 11.3333C1.06494 9.12273 1.9431 7.00268 3.50622 5.43955C5.06935 3.87643 7.1894 2.99827 9.4 2.99827C11.6106 2.99827 13.7306 3.87643 15.2938 5.43955L16 6.14578L16.7061 5.43972C17.4799 4.66556 18.3988 4.05127 19.4101 3.63227ZM20.1756 5.47994C19.4071 5.7984 18.7087 6.26518 18.1206 6.8536L16.7071 8.2671C16.3166 8.65762 15.6834 8.65762 15.2929 8.2671L13.8796 6.85377C12.6915 5.66571 11.0802 4.99827 9.4 4.99827C7.71983 4.99827 6.10849 5.66571 4.92044 6.85377C3.73238 8.04182 3.06494 9.65316 3.06494 11.3333C3.06494 13.0135 3.73238 14.6248 4.92044 15.8129L16 26.8924L27.0796 15.8129C27.1741 15.7184 27.2655 15.6211 27.3536 15.5211C27.8142 14.9985 28.1861 14.4028 28.4534 13.7577C28.4671 13.7246 28.4805 13.6915 28.4936 13.6582C28.7856 12.9182 28.9358 12.1295 28.9358 11.3333C28.9358 10.5371 28.7856 9.74843 28.4936 9.00842C28.4805 8.97518 28.4671 8.94203 28.4534 8.90898C28.1349 8.14039 27.6681 7.44207 27.0797 6.85393C26.4916 6.26551 25.7929 5.79841 25.0243 5.47994C24.2558 5.16147 23.432 4.99756 22.6 4.99756C21.9017 4.99756 21.2091 5.11305 20.5501 5.33848C20.424 5.38162 20.2991 5.42879 20.1756 5.47994Z"/>
</svg>
