<svg width="16" height="16" viewBox="0 0 16 16" fill="none" xmlns="http://www.w3.org/2000/svg">
<path fill-rule="evenodd" clip-rule="evenodd" d="M1.02055 0.310509C0.825283 0.115247 0.508701 0.115247 0.313439 0.310509C0.118177 0.505771 0.118177 0.822354 0.313439 1.01762L3.29163 3.9958C2.04031 5.04267 0.999253 6.32033 0.22619 7.761C0.149374 7.90416 0.147328 8.07656 0.219984 8.22188L0.22066 8.22322L0.222751 8.22736L0.229885 8.24133C0.235951 8.25312 0.244635 8.26985 0.255917 8.29117C0.278478 8.3338 0.311451 8.39486 0.354678 8.47171C0.441097 8.62534 0.568725 8.84249 0.736332 9.10201C1.07093 9.62009 1.5681 10.3121 2.21867 11.0061C3.51068 12.3842 5.46701 13.8308 8.0001 13.8308L8.00828 13.8307C9.40108 13.8079 10.7542 13.3825 11.9062 12.6104L14.9801 15.6843C15.1754 15.8795 15.4919 15.8795 15.6872 15.6843C15.8825 15.489 15.8825 15.1724 15.6872 14.9772L1.02055 0.310509ZM0.666768 7.99741L0.219984 8.22188C0.219984 8.22188 0.219555 8.22102 0.666768 7.99741ZM1.57637 8.55948C1.42774 8.32934 1.31404 8.1367 1.23648 7.99958C1.9489 6.74123 2.88634 5.62494 4.00163 4.70605L5.90506 6.60948C5.81243 6.74123 5.73252 6.88196 5.66664 7.02981C5.53 7.33648 5.45652 7.66752 5.4506 8.0032C5.44468 8.33887 5.50643 8.6723 5.63216 8.9836C5.7579 9.29489 5.94505 9.57767 6.18245 9.81507C6.41984 10.0525 6.70262 10.2396 7.01392 10.3653C7.32521 10.4911 7.65864 10.5528 7.99432 10.5469C8.32999 10.541 8.66104 10.4675 8.9677 10.3309C9.11556 10.265 9.25628 10.1851 9.38804 10.0925L11.183 11.8875C10.2291 12.4836 9.12785 12.8115 7.99602 12.8307C5.86434 12.8292 4.15542 11.6098 2.9482 10.3221C2.34877 9.68271 1.88761 9.0414 1.57637 8.55948ZM6.58007 7.43681C6.59553 7.4021 6.61229 7.36804 6.63029 7.3347L8.66281 9.36723C8.62947 9.38523 8.59542 9.40198 8.56071 9.41745C8.37671 9.49943 8.17808 9.54351 7.97667 9.54707C7.77527 9.55062 7.57521 9.51357 7.38843 9.43813C7.20166 9.36269 7.03199 9.2504 6.88955 9.10796C6.74712 8.96552 6.63483 8.79586 6.55938 8.60908C6.48394 8.4223 6.44689 8.22225 6.45045 8.02084C6.454 7.81943 6.49808 7.62081 6.58007 7.43681Z"/>
<path fill-rule="evenodd" clip-rule="evenodd" d="M6.71406 3.31092C7.13521 3.21234 7.56639 3.16306 7.99893 3.16408L8.0001 3.16408C10.1337 3.16408 11.844 4.38419 13.052 5.67272C13.6514 6.31211 14.1126 6.95342 14.4238 7.43534C14.5726 7.66575 14.6864 7.85855 14.764 7.9957C14.4033 8.63527 13.9838 9.24005 13.5109 9.80216C13.3331 10.0134 13.3602 10.3289 13.5715 10.5067C13.7828 10.6844 14.0982 10.6573 14.276 10.446C14.8511 9.76253 15.3533 9.02088 15.7744 8.23312C15.8508 8.09009 15.8527 7.91801 15.7802 7.77295L15.7795 7.7716L15.7775 7.76747L15.7703 7.7535C15.7643 7.7417 15.7556 7.72498 15.7443 7.70366C15.7217 7.66102 15.6888 7.59997 15.6455 7.52312C15.5591 7.36948 15.4315 7.15234 15.2639 6.89282C14.9293 6.37474 14.4321 5.68271 13.7815 4.98878C12.4896 3.61074 10.5335 2.1643 8.00069 2.16408C7.49084 2.16293 6.98258 2.22104 6.48615 2.33724C6.21727 2.40017 6.05032 2.66916 6.11326 2.93804C6.1762 3.20691 6.44518 3.37386 6.71406 3.31092ZM15.3334 7.99741L14.8925 7.76171C14.8505 7.84021 14.8077 7.91821 14.764 7.9957L14.7739 8.01338C14.8128 8.08236 14.8416 8.13589 14.8604 8.17138C14.8698 8.18912 14.8767 8.20234 14.881 8.21073L14.8855 8.21963L14.8863 8.22126C14.8863 8.22126 14.8862 8.22102 15.3334 7.99741ZM15.7802 7.77295C15.7802 7.77295 15.7806 7.77381 15.3334 7.99741L15.7802 7.77295Z"/>
</svg>
