<svg width="33" height="32" viewBox="0 0 33 32" fill="none" xmlns="http://www.w3.org/2000/svg">
<path d="M8.33325 2.66663L4.33325 7.99996V26.6666C4.33325 27.3739 4.6142 28.0521 5.1143 28.5522C5.6144 29.0523 6.29267 29.3333 6.99992 29.3333H25.6666C26.3738 29.3333 27.0521 29.0523 27.5522 28.5522C28.0523 28.0521 28.3333 27.3739 28.3333 26.6666V7.99996L24.3333 2.66663H8.33325Z" stroke="#2C2B3C" stroke-width="2" stroke-linecap="round" stroke-linejoin="round"/>
<path d="M4.33325 8H28.3333" stroke="#2C2B3C" stroke-width="2" stroke-linecap="round" stroke-linejoin="round"/>
<path d="M21.6667 13.3334C21.6667 14.7479 21.1048 16.1044 20.1046 17.1046C19.1044 18.1048 17.7478 18.6667 16.3333 18.6667C14.9188 18.6667 13.5623 18.1048 12.5621 17.1046C11.5619 16.1044 11 14.7479 11 13.3334" stroke="#2C2B3C" stroke-width="2" stroke-linecap="round" stroke-linejoin="round"/>
</svg>
