<svg width="24" height="24" viewBox="0 0 24 24" fill="none" xmlns="http://www.w3.org/2000/svg">
<path fill-rule="evenodd" clip-rule="evenodd" d="M2.03853 1.50147C2.06798 1.50374 2.09726 1.50859 2.12601 1.51605L16.6173 5.01395C16.8066 5.05964 16.9521 5.21102 16.9903 5.40194L18.3071 11.9858L18.6464 11.6464C18.8417 11.4512 19.1583 11.4512 19.3536 11.6464L22.3536 14.6464C22.5488 14.8417 22.5488 15.1583 22.3536 15.3535L15.3536 22.3535C15.1583 22.5488 14.8417 22.5488 14.6464 22.3535L11.6464 19.3535C11.4512 19.1583 11.4512 18.8417 11.6464 18.6464L11.9858 18.3071L5.40194 16.9903C5.21103 16.9521 5.05964 16.8066 5.01396 16.6173L1.51606 2.12601C1.5086 2.09726 1.50374 2.06797 1.50148 2.03853C1.49069 1.89805 1.53901 1.75388 1.64645 1.64644C1.73497 1.55792 1.84843 1.50953 1.96421 1.50127C1.98883 1.4995 2.01367 1.49955 2.03853 1.50147ZM8.9142 9.6213L2.90301 3.61011L5.91113 16.0723L12.8357 17.4572L17.4572 12.8357L16.0723 5.91112L3.61011 2.903L9.62131 8.91419C10.0165 8.65243 10.4905 8.49999 11 8.49999C12.3807 8.49999 13.5 9.61928 13.5 11C13.5 12.3807 12.3807 13.5 11 13.5C9.61929 13.5 8.5 12.3807 8.5 11C8.5 10.4905 8.65244 10.0165 8.9142 9.6213ZM9.92866 9.95013C9.6635 10.2207 9.5 10.5912 9.5 11C9.5 11.8284 10.1716 12.5 11 12.5C11.8284 12.5 12.5 11.8284 12.5 11C12.5 10.1716 11.8284 9.49999 11 9.49999C10.5912 9.49999 10.2207 9.66349 9.95013 9.92865C9.94667 9.93232 9.94315 9.93596 9.93955 9.93955C9.93596 9.94314 9.93233 9.94667 9.92866 9.95013ZM12.7071 19L15 21.2929L21.2929 15L19 12.7071L12.7071 19Z" fill="#791A3C"/>
</svg>
