<svg width="50" height="50" viewBox="0 0 50 50" fill="none" xmlns="http://www.w3.org/2000/svg">
<path fill-rule="evenodd" clip-rule="evenodd" d="M49.9999 25.2765V25.0003V24.725C38.9298 24.39 33.8675 24.1138 29.83 20.1703C25.8876 16.1336 25.6103 11.0715 25.2762 0.000976562H24.9999H24.7236C24.3896 11.0715 24.1123 16.1336 20.1698 20.1703C16.1323 24.1138 11.07 24.39 0 24.725V25.0003V25.2765C11.07 25.6114 16.1323 25.8877 20.1698 29.8303C24.1123 33.8679 24.3896 38.93 24.7236 50.0005H24.9999H25.2762C25.6103 38.93 25.8876 33.8679 29.83 29.8303C33.8675 25.8877 38.9298 25.6114 49.9999 25.2765Z"/>
</svg>
