<svg width="82" height="102" viewBox="0 0 82 102" fill="none" xmlns="http://www.w3.org/2000/svg">
<path d="M23.3999 32V19.2C23.3999 9.44001 31.2399 1.60001 40.9999 1.60001C50.7599 1.60001 58.5999 9.44001 58.5999 19.2V32" stroke="#AF38D9" stroke-width="2" stroke-miterlimit="10" stroke-linecap="round" stroke-linejoin="round"/>
<path d="M33 22.4H49" stroke="#AF38D9" stroke-width="2" stroke-miterlimit="10" stroke-linecap="square" stroke-linejoin="round"/>
<path d="M23.4 22.4H4.2L1 94.4C1 97.92 3.88 100.8 7.4 100.8H74.6C78.12 100.8 81 97.92 81 94.4L77.8 22.4H58.6" stroke="#AF38D9" stroke-width="2" stroke-miterlimit="10" stroke-linecap="round" stroke-linejoin="round"/>
<path d="M23.4002 36.8001C25.1675 36.8001 26.6002 35.3674 26.6002 33.6001C26.6002 31.8327 25.1675 30.4001 23.4002 30.4001C21.6329 30.4001 20.2002 31.8327 20.2002 33.6001C20.2002 35.3674 21.6329 36.8001 23.4002 36.8001Z" fill="#AF38D9"/>
<path d="M58.5999 36.8C60.3672 36.8 61.7999 35.3673 61.7999 33.6C61.7999 31.8327 60.3672 30.4 58.5999 30.4C56.8326 30.4 55.3999 31.8327 55.3999 33.6C55.3999 35.3673 56.8326 36.8 58.5999 36.8Z" fill="#AF38D9"/>
<path d="M50.5999 51.2L31.3999 81.6" stroke="#AF38D9" stroke-width="2" stroke-miterlimit="10" stroke-linecap="round" stroke-linejoin="round"/>
<path d="M29.7999 64C33.3345 64 36.1999 61.1346 36.1999 57.6C36.1999 54.0654 33.3345 51.2 29.7999 51.2C26.2653 51.2 23.3999 54.0654 23.3999 57.6C23.3999 61.1346 26.2653 64 29.7999 64Z" stroke="#AF38D9" stroke-width="2" stroke-miterlimit="10" stroke-linecap="round" stroke-linejoin="round"/>
<path d="M52.1998 81.6C55.7344 81.6 58.5998 78.7346 58.5998 75.2C58.5998 71.6654 55.7344 68.8 52.1998 68.8C48.6652 68.8 45.7998 71.6654 45.7998 75.2C45.7998 78.7346 48.6652 81.6 52.1998 81.6Z" stroke="#AF38D9" stroke-width="2" stroke-miterlimit="10" stroke-linecap="round" stroke-linejoin="round"/>
</svg>
